<svg width="16" height="16" viewBox="0 0 16 16" fill="none" xmlns="http://www.w3.org/2000/svg">
<path fill-rule="evenodd" clip-rule="evenodd" d="M14.7175 3.40381C15.3033 2.81802 15.3033 1.86827 14.7175 1.28249C14.1317 0.6967 13.182 0.6967 12.5962 1.28249L8 5.87868L3.40381 1.28249C2.81802 0.6967 1.86827 0.6967 1.28249 1.28249C0.696699 1.86827 0.696699 2.81802 1.28249 3.40381L5.87868 8L1.28249 12.5962C0.696698 13.182 0.696698 14.1317 1.28249 14.7175C1.86827 15.3033 2.81802 15.3033 3.40381 14.7175L8 10.1213L12.5962 14.7175C13.182 15.3033 14.1317 15.3033 14.7175 14.7175C15.3033 14.1317 15.3033 13.182 14.7175 12.5962L10.1213 8L14.7175 3.40381Z" fill="black"/>
</svg>
